<?xml version="1.0" standalone="no"?><!DOCTYPE svg PUBLIC "-//W3C//DTD SVG 1.1//EN" "http://www.w3.org/Graphics/SVG/1.1/DTD/svg11.dtd"><svg t="1521102587551" class="icon" style="" viewBox="0 0 1024 1024" version="1.1" xmlns="http://www.w3.org/2000/svg" p-id="1676" xmlns:xlink="http://www.w3.org/1999/xlink" width="14" height="14"><defs><style type="text/css"></style></defs><path d="M816.512 504.96a31.488 31.488 0 0 0-31.488 31.552l0.128 3.52h-0.128v300.992H182.976V238.976H512a31.488 31.488 0 1 0 0-62.976H183.04a62.976 62.976 0 0 0-63.04 62.976v602.048c0 34.816 28.16 62.976 62.976 62.976h602.048c34.816 0 62.976-28.16 62.976-62.976V539.968h-0.192a31.488 31.488 0 0 0-31.36-35.008z" p-id="1677"></path><path d="M941.376 151.744l-69.376-69.376a63.232 63.232 0 0 0-89.28 0.192L435.2 430.08a27.968 27.968 0 0 0-5.952 8.96l-87.36 205.952a27.712 27.712 0 0 0 5.952 30.72c7.424 7.552 19.2 10.88 30.784 6.016l206.08-87.232a28.992 28.992 0 0 0 8.96-5.952l347.52-347.52a63.232 63.232 0 0 0 0.192-89.28zM553.856 539.136l-120.256 50.944 50.944-120.256 243.904-243.968 69.312 69.312-243.904 243.968z m342.72-342.72l-54.272 54.208-69.312-69.312 54.272-54.208 0.192-0.192 69.312 69.312-0.192 0.192z" p-id="1678"></path></svg>