<?xml version="1.0" standalone="no"?><!DOCTYPE svg PUBLIC "-//W3C//DTD SVG 1.1//EN" "http://www.w3.org/Graphics/SVG/1.1/DTD/svg11.dtd"><svg t="1521103037398" class="icon" style="" viewBox="0 0 1024 1024" version="1.1" xmlns="http://www.w3.org/2000/svg" p-id="1903" xmlns:xlink="http://www.w3.org/1999/xlink" width="14" height="14"><defs><style type="text/css"></style></defs><path d="M933.76 763.328L594.176 167.68a94.72 94.72 0 0 0-107.008-44.288c-24.32 6.656-44.672 22.4-57.152 44.352l-339.584 595.584a94.528 94.528 0 0 0 82.048 141.248h679.104a94.592 94.592 0 0 0 82.176-141.248z m-51.712 55.04a31.104 31.104 0 0 1-30.4 23.232H172.48a31.488 31.488 0 0 1-27.392-47.04L484.672 199.04a31.104 31.104 0 0 1 27.52-16 31.616 31.616 0 0 1 27.264 15.872l339.584 595.52c4.16 7.36 5.184 15.872 3.008 24z" p-id="1904"></path><path d="M512 696.64a35.008 35.008 0 0 0-35.008 35.008v10.496a35.008 35.008 0 1 0 70.016 0v-10.496A35.008 35.008 0 0 0 512 696.64zM512 336.128a35.008 35.008 0 0 0-35.008 35.008v234.496a35.008 35.008 0 1 0 70.016 0V371.136A35.008 35.008 0 0 0 512 336.128z" p-id="1905"></path></svg>