<?xml version="1.0" standalone="no"?><!DOCTYPE svg PUBLIC "-//W3C//DTD SVG 1.1//EN" "http://www.w3.org/Graphics/SVG/1.1/DTD/svg11.dtd"><svg t="1521103115920" class="icon" style="" viewBox="0 0 1024 1024" version="1.1" xmlns="http://www.w3.org/2000/svg" p-id="2017" xmlns:xlink="http://www.w3.org/1999/xlink" width="14" height="14"><defs><style type="text/css"></style></defs><path d="M412.224 183.04V412.16H183.04V183.04h229.248z m0-63.04H183.04a62.976 62.976 0 0 0-62.976 62.976v229.248c0 34.88 28.16 63.04 62.976 63.04h229.248c34.88 0 63.04-28.16 63.04-63.04V183.04a62.976 62.976 0 0 0-63.04-62.976z m428.8 62.976v229.248H611.776V183.04h229.248z m0-62.976H611.776a62.976 62.976 0 0 0-63.04 62.976v229.248c0 34.88 28.16 63.04 63.04 63.04h229.248c34.816 0 62.976-28.16 62.976-63.04V183.04a62.976 62.976 0 0 0-62.976-62.976z m-428.8 491.776v229.248H183.04V611.776h229.248z m0-63.04H183.04a62.976 62.976 0 0 0-62.976 63.04v229.248c0 34.816 28.16 62.976 62.976 62.976h229.248c34.88 0 63.04-28.16 63.04-62.976V611.776a62.976 62.976 0 0 0-63.04-63.04z m428.8 63.04v229.248H611.776V611.776h229.248z m0-63.04H611.776a62.976 62.976 0 0 0-63.04 63.04v229.248c0 34.816 28.16 62.976 63.04 62.976h229.248c34.816 0 62.976-28.16 62.976-62.976V611.776a62.976 62.976 0 0 0-62.976-63.04z" p-id="2018"></path></svg>