<?xml version="1.0" standalone="no"?><!DOCTYPE svg PUBLIC "-//W3C//DTD SVG 1.1//EN" "http://www.w3.org/Graphics/SVG/1.1/DTD/svg11.dtd"><svg t="1521103450911" class="icon" style="" viewBox="0 0 1024 1024" version="1.1" xmlns="http://www.w3.org/2000/svg" p-id="1264" xmlns:xlink="http://www.w3.org/1999/xlink" width="20" height="20"><defs><style type="text/css"></style></defs><path d="M912.0256 128a47.9744 47.9744 0 1 1 0 96H112.0256a48.0256 48.0256 0 0 1 0-96h799.9488z m0 336.0256a47.9744 47.9744 0 1 1 0 95.9488H432.0256a47.9744 47.9744 0 1 1 0-95.9488h479.9488zM242.688 355.5328A7.9872 7.9872 0 0 1 256 361.6256v300.3392a7.9872 7.9872 0 0 1-13.2608 5.9904l-165.1712-143.872a16.0256 16.0256 0 0 1 0-24.1664l165.1712-144.3328z m669.2864 444.416a47.9744 47.9744 0 1 1 0 96H112.0256a47.9744 47.9744 0 1 1 0-96h799.9488z" p-id="1265"></path></svg>