<?xml version="1.0" standalone="no"?><!DOCTYPE svg PUBLIC "-//W3C//DTD SVG 1.1//EN" "http://www.w3.org/Graphics/SVG/1.1/DTD/svg11.dtd"><svg t="1521102439538" class="icon" style="" viewBox="0 0 1024 1024" version="1.1" xmlns="http://www.w3.org/2000/svg" p-id="1562" xmlns:xlink="http://www.w3.org/1999/xlink" width="14" height="14"><defs><style type="text/css"></style></defs><path d="M512 128C264.576 128 64 333.248 64 586.56c0 150.016 70.4 283.136 179.2 366.784l0.064-0.128a31.232 31.232 0 0 0 19.392 6.784 31.872 31.872 0 0 0 31.488-32.256 32.384 32.384 0 0 0-15.488-27.776A390.592 390.592 0 0 1 193.28 807.68l38.656-22.848a29.056 29.056 0 0 0 10.24-39.168 27.648 27.648 0 0 0-38.272-10.432l-38.656 22.784a396.352 396.352 0 0 1-37.248-142.848h44.416c15.488 0 28.032-12.8 28.032-28.608a28.288 28.288 0 0 0-28.032-28.672h-44.416a400.64 400.64 0 0 1 37.44-143.36l38.528 22.784c13.376 7.936 30.528 3.2 38.208-10.432a29.056 29.056 0 0 0-10.24-39.168l-38.4-22.656a392.192 392.192 0 0 1 102.016-104.448l22.144 39.36c7.68 13.696 24.832 18.368 38.208 10.432a29.056 29.056 0 0 0 10.24-39.104l-22.208-39.424a374.848 374.848 0 0 1 140.032-38.336v45.504c0 15.872 12.48 28.672 27.968 28.672s28.032-12.8 28.032-28.672v-45.44a376.768 376.768 0 0 1 139.52 38.08l-22.272 39.616a29.056 29.056 0 0 0 10.24 39.104c13.376 7.936 30.528 3.2 38.208-10.432l22.336-39.616a390.528 390.528 0 0 1 102.4 104.704l-38.464 22.656a29.056 29.056 0 0 0-10.24 39.168c7.68 13.696 24.832 18.368 38.272 10.432l38.464-22.72c20.8 43.776 33.92 92.224 37.44 143.296h-44.416c-15.488 0-28.032 12.8-28.032 28.672 0 15.808 12.544 28.608 28.032 28.608h44.416a399.424 399.424 0 0 1-37.248 142.848l-38.656-22.784a27.648 27.648 0 0 0-38.272 10.432 29.056 29.056 0 0 0 10.24 39.168l38.656 22.848a391.04 391.04 0 0 1-87.68 94.08l0.192 0.32a32.384 32.384 0 0 0-12.416 25.664c0 17.856 14.08 32.256 31.488 32.256a31.104 31.104 0 0 0 22.528-9.664A461.44 461.44 0 0 0 960 586.56C960 333.248 759.424 128 512 128z" p-id="1563"></path><path d="M649.92 440.32L539.904 528.384A61.184 61.184 0 0 0 512 521.728a63.744 63.744 0 0 0-62.976 64.448c0 35.648 28.16 64.512 62.976 64.512s62.976-28.864 62.976-64.512a61.824 61.824 0 0 0-1.088-12.16l110.464-88.512a29.12 29.12 0 0 0 4.864-40.192 27.52 27.52 0 0 0-39.296-4.928z" p-id="1564"></path></svg>