<?xml version="1.0" standalone="no"?><!DOCTYPE svg PUBLIC "-//W3C//DTD SVG 1.1//EN" "http://www.w3.org/Graphics/SVG/1.1/DTD/svg11.dtd"><svg t="1521102641549" class="icon" style="" viewBox="0 0 1024 1024" version="1.1" xmlns="http://www.w3.org/2000/svg" p-id="1790" xmlns:xlink="http://www.w3.org/1999/xlink" width="14" height="14"><defs><style type="text/css"></style></defs><path d="M897.024 160H126.976C92.16 160 64 189.504 64 225.984v572.032c0 36.48 28.16 65.984 62.976 65.984h769.984c34.88 0 63.04-29.504 63.04-65.984V225.92c0-36.48-28.16-65.984-62.976-65.984zM400 431.36V306.688h224V431.36h-224z m224 58.624v124.672h-224V489.984h224zM126.976 306.688h217.024V431.36h-216.96V306.688z m0 183.296h217.024v124.672h-216.96V489.984z m0 308.032V673.28h217.024v124.672h-216.96z m273.024 0V673.28h224v124.672h-224z m497.024 0h-217.024V673.28h216.96v124.672z m0-183.36h-217.024V489.984h216.96v124.672zM680 431.36V306.688h216.96V431.36h-216.96z" p-id="1791"></path></svg>